<svg width="158" height="158" viewBox="0 0 158 158" fill="none" xmlns="http://www.w3.org/2000/svg">
<circle cx="79" cy="79" r="79" fill="black"/>
<path d="M94.0253 61.9091C93.6418 58.6705 92.0864 56.1562 89.3591 54.3665C86.6318 52.5767 83.2867 51.6818 79.3236 51.6818C76.4259 51.6818 73.8904 52.1506 71.7171 53.0881C69.5651 54.0256 67.8818 55.3146 66.6673 56.9553C65.4742 58.5959 64.8776 60.4602 64.8776 62.5483C64.8776 64.2955 65.2931 65.7976 66.124 67.0547C66.9763 68.2905 68.0629 69.3239 69.384 70.1548C70.705 70.9645 72.0899 71.6357 73.5388 72.1683C74.9877 72.6797 76.3193 73.0952 77.5338 73.4148L84.1816 75.2045C85.8861 75.652 87.7824 76.2699 89.8705 77.0582C91.9798 77.8466 93.9933 78.9226 95.911 80.2862C97.8499 81.6285 99.4479 83.3544 100.705 85.4638C101.962 87.5732 102.591 90.1619 102.591 93.2301C102.591 96.767 101.664 99.9631 99.8101 102.818C97.9777 105.673 95.2931 107.942 91.7561 109.626C88.2405 111.309 83.9685 112.151 78.9401 112.151C74.2526 112.151 70.1936 111.394 66.7632 109.881C63.3541 108.369 60.6695 106.259 58.7093 103.553C56.7703 100.847 55.673 97.7045 55.4173 94.125H63.5992C63.8122 96.5966 64.6432 98.642 66.0921 100.261C67.5622 101.859 69.4159 103.053 71.6531 103.841C73.9117 104.608 76.3406 104.991 78.9401 104.991C81.9656 104.991 84.6823 104.501 87.0899 103.521C89.4976 102.52 91.4046 101.135 92.8108 99.3665C94.2171 97.5767 94.9202 95.4886 94.9202 93.1023C94.9202 90.929 94.3129 89.1605 93.0985 87.7969C91.884 86.4332 90.286 85.3253 88.3044 84.473C86.3229 83.6207 84.1816 82.875 81.8804 82.2358L73.8264 79.9347C68.7128 78.4645 64.6645 76.3658 61.6816 73.6385C58.6986 70.9112 57.2071 67.3423 57.2071 62.9318C57.2071 59.267 58.1979 56.071 60.1794 53.3438C62.1823 50.5952 64.8669 48.4645 68.2334 46.9517C71.6212 45.4176 75.4031 44.6506 79.5793 44.6506C83.798 44.6506 87.548 45.407 90.8293 46.9197C94.1105 48.4112 96.71 50.4567 98.6276 53.0561C100.566 55.6555 101.589 58.6065 101.696 61.9091H94.0253Z" fill="white"/>
</svg>
